<svg width="130" height="130" viewBox="0 0 130 130" fill="none" xmlns="http://www.w3.org/2000/svg">
<g opacity="0.4">
<path d="M72.3099 21.6973C71.6997 20.8166 71.6732 19.6145 72.3266 18.6901C72.3932 18.593 75.8727 13.445 73.9708 9.85806C73.2933 8.5811 73.7808 6.99409 75.0578 6.31654C76.3348 5.639 77.9127 6.14561 78.5993 7.40352C82.0623 13.9338 76.8217 21.411 76.5969 21.726C75.7583 22.903 74.1217 23.1764 72.9433 22.3356C72.6901 22.1541 72.477 21.9385 72.3099 21.6973Z" fill="#D9D9D9" fill-opacity="0.5"/>
<path d="M74.7635 25.9567C74.6337 25.7693 74.5268 25.5598 74.4472 25.3345C73.9636 23.9741 74.6773 22.479 76.0356 21.9969C76.1366 21.9588 81.9494 19.7418 82.4514 15.71C82.6292 14.2739 83.9379 13.2557 85.374 13.4335C86.808 13.6128 87.8298 14.9221 87.6484 16.3576C86.7353 23.692 78.1525 26.8051 77.7864 26.9345C76.6498 27.3363 75.4199 26.9041 74.7635 25.9567Z" fill="#D9D9D9" fill-opacity="0.5"/>
<path d="M78.3199 31.2878C78.0961 30.9648 77.9411 30.5847 77.8813 30.1672C77.6777 28.7371 78.6692 27.4129 80.0977 27.2071C80.1594 27.1995 86.3372 26.1764 87.6284 22.3086C88.0863 20.9365 89.5707 20.1949 90.9443 20.655C92.3143 21.1145 93.0544 22.5967 92.5979 23.971C90.2548 30.98 81.2279 32.3389 80.843 32.3952C79.829 32.5369 78.8674 32.0781 78.3199 31.2878Z" fill="#D9D9D9" fill-opacity="0.5"/>
<path d="M81.8402 36.1022C81.5046 35.6177 81.3289 35.0191 81.383 34.3889C81.507 32.9486 82.7712 31.8847 84.2092 32.0007C84.3132 32.0083 90.5249 32.3863 92.645 28.9193C93.3998 27.6858 95.0103 27.2966 96.2454 28.0534C97.4796 28.8045 97.8681 30.4188 97.1112 31.6538C93.2543 37.9589 84.1534 37.2562 83.7677 37.2238C82.9599 37.1525 82.2699 36.7223 81.8402 36.1022Z" fill="#D9D9D9" fill-opacity="0.5"/>
<path d="M85.9273 41.7348C85.5081 41.1297 85.3445 40.3507 85.5444 39.5813C85.9089 38.1847 87.3356 37.346 88.7335 37.7033C88.8364 37.7276 94.8952 39.1452 97.5668 36.0833C98.5196 34.993 100.172 34.8806 101.262 35.8334C102.348 36.7891 102.467 38.4409 101.512 39.529C96.6504 45.0964 87.7956 42.872 87.4196 42.7755C86.7882 42.6139 86.272 42.2322 85.9273 41.7348ZM89.4809 48.7408C88.9529 47.9786 88.846 46.9595 89.293 46.073C89.9414 44.7825 91.5103 44.2596 92.8 44.9022C92.8571 44.9295 98.5126 47.6049 101.781 45.1652C102.938 44.2966 104.582 44.5346 105.448 45.6934C106.295 46.8787 106.078 48.4921 104.919 49.3586C99.0024 53.7858 90.8072 49.7628 90.4625 49.5873C90.0527 49.3868 89.7241 49.0918 89.4809 48.7408ZM91.8854 57.1517C91.2275 56.2021 91.2592 54.8863 92.0442 53.9632C92.9801 52.8623 94.6308 52.7289 95.7324 53.6611C95.832 53.7451 100.66 57.6372 104.392 56.0496C105.724 55.4801 107.263 56.1 107.828 57.4357C108.394 58.7677 107.774 60.3062 106.442 60.8721C99.6422 63.7666 92.6365 57.9093 92.3413 57.658C92.1678 57.5042 92.0137 57.3369 91.8854 57.1517ZM92.7757 66.5096C92.0149 65.4115 92.2014 63.896 93.2437 63.0177C94.3468 62.0846 95.9967 62.2258 96.9268 63.3246C96.981 63.3891 101.114 68.0624 105.075 67.1094C106.481 66.7696 107.89 67.6353 108.235 69.044C108.572 70.4513 107.708 71.8663 106.3 72.2039C99.1133 73.9325 93.1755 67.0039 92.9261 66.7082C92.8719 66.6438 92.822 66.5764 92.7757 66.5096ZM89.4724 78.6231C89.0771 78.0525 88.8521 77.6634 88.8138 77.5944C88.101 76.3355 88.5418 74.7362 89.8007 74.0234C91.0574 73.312 92.6811 73.7742 93.3672 75.0038C93.4338 75.1138 96.6338 80.4273 100.682 80.2168C102.128 80.1423 103.36 81.2582 103.434 82.6949C103.51 84.1432 102.399 85.3723 100.956 85.4475C95.089 85.7551 91 80.8281 89.4724 78.6231ZM84.9917 93.0437C83.4939 90.8818 82.784 88.8912 82.725 88.7185C82.25 87.3522 82.971 85.8584 84.3374 85.3834C85.703 84.9121 87.197 85.6426 87.6695 86.9915C87.6909 87.05 89.8812 92.9164 93.9242 93.4392C95.3627 93.625 96.3738 94.9417 96.185 96.3759C95.9985 97.8086 94.6853 98.8203 93.2505 98.6352C89.3662 98.1299 86.6789 95.4791 84.9917 93.0437ZM76.2614 103.92C73.879 100.481 73.3536 96.4157 73.3228 96.1597C73.1504 94.724 74.1705 93.4182 75.6105 93.2427C77.0441 93.0718 78.3476 94.0839 78.5252 95.5224C78.5328 95.5841 79.4262 101.782 83.27 103.153C84.6296 103.639 85.3395 105.142 84.8552 106.504C84.3672 107.865 82.8699 108.574 81.5046 108.089C79.157 107.249 77.4712 105.666 76.2614 103.92ZM66.8671 110.945C63.8149 106.539 64.4249 100.543 64.4571 100.231C64.6145 98.7926 65.9097 97.755 67.3477 97.9124C68.7871 98.072 69.818 99.3622 69.6671 100.796C69.6516 100.944 69.147 107.106 72.5434 109.304C73.7564 110.088 74.1124 111.706 73.3246 112.924C72.5391 114.141 70.9184 114.493 69.7039 113.706C68.5159 112.938 67.5876 111.985 66.8671 110.945ZM55.9816 115.035C51.7941 108.991 56.0396 100.97 56.2218 100.63C56.9104 99.3561 58.4991 98.8801 59.7714 99.5666C61.0451 100.255 61.5174 101.834 60.8354 103.112C60.7974 103.187 57.9788 108.718 60.2896 112.054L60.3165 112.092C61.137 113.277 60.8484 114.898 59.6701 115.727C58.4853 116.561 56.8524 116.274 56.0203 115.091L55.9816 115.035ZM36.9329 106.533C36.6256 106.089 36.4525 105.55 36.4675 104.969C36.6806 97.5807 44.9235 93.6642 45.2752 93.5002C46.5883 92.8932 48.1339 93.4636 48.7531 94.7714C49.3608 96.0809 48.7963 97.6351 47.4899 98.2471C47.4077 98.2849 41.8176 101.049 41.7028 105.115C41.661 106.559 40.4563 107.699 39.0102 107.659C38.1466 107.636 37.3924 107.196 36.9329 106.533ZM44.6669 112.6C44.47 112.315 44.3254 111.992 44.2529 111.634C42.7675 104.393 49.8958 98.6931 50.1989 98.4544C51.3383 97.5599 52.9834 97.7586 53.8785 98.8944C54.7605 100.02 54.5778 101.67 53.445 102.57C53.3834 102.619 48.5677 106.592 49.3853 110.583C49.6759 112.001 48.7618 113.386 47.3464 113.675C46.2865 113.893 45.2457 113.435 44.6669 112.6ZM28.0784 88.7981C27.3519 87.7495 27.4836 86.2974 28.4434 85.3967C33.8371 80.3437 42.4248 83.4383 42.7884 83.5721C44.1401 84.0696 44.8393 85.5802 44.3367 86.9386C43.837 88.2918 42.3329 88.9865 40.9775 88.4883C40.8393 88.4406 34.9819 86.4533 32.0245 89.2224C30.9675 90.2128 29.3112 90.1589 28.3208 89.1019C28.2332 89.0032 28.1515 88.9036 28.0784 88.7981Z" fill="#D9D9D9" fill-opacity="0.5"/>
<path d="M30.7036 97.8496C30.1681 97.0765 30.0667 96.0378 30.5317 95.1451C33.9446 88.59 43.0749 88.6637 43.4616 88.6698C44.9109 88.6919 46.0621 89.8797 46.0372 91.3342C46.0144 92.7778 44.8265 93.9289 43.3802 93.9112C43.2769 93.9094 37.0548 93.9625 35.1755 97.5654C34.5095 98.849 32.9242 99.3482 31.6413 98.6786C31.2547 98.4748 30.9378 98.1876 30.7036 97.8496ZM29.0055 77.2473C28.8981 77.0923 28.8064 76.9232 28.7298 76.7436C28.1841 75.404 28.8268 73.8752 30.1664 73.3295C37.0117 70.5374 43.9249 76.5003 44.2136 76.756C45.3002 77.7081 45.4141 79.3628 44.4555 80.454C43.5056 81.5391 41.8552 81.65 40.7642 80.7009C40.717 80.6603 35.919 76.642 32.1439 78.1802C30.9896 78.6485 29.6888 78.2335 29.0055 77.2473ZM34.3209 68.2588C34.1284 67.981 33.9847 67.6631 33.913 67.3113C33.6123 65.8975 34.5183 64.505 35.9321 64.2043C43.1625 62.6719 48.9063 69.7667 49.1487 70.0705C50.0144 71.182 49.8603 72.8503 48.7291 73.7519C47.6 74.6521 45.958 74.4671 45.0536 73.341C45 73.2729 41 68.4882 37.0199 69.3303C35.955 69.555 34.9042 69.1007 34.3209 68.2588ZM41.5596 58.9002C41.2478 58.4501 41.0715 57.8967 41.098 57.3047C41.155 55.8598 42.3738 54.735 43.8202 54.7941C51.204 55.093 55.0254 63.3827 55.1836 63.7352C55.7762 65.0551 55.1899 66.6053 53.8714 67.2001C52.5552 67.7933 51.0101 67.2098 50.4089 65.8959C50.3868 65.841 47.6786 60.1932 43.6064 60.0284C42.7542 59.9942 42.0116 59.5526 41.5596 58.9002ZM46.2531 50.0397C45.9771 49.6414 45.8079 49.1626 45.7892 48.6434C45.7372 47.1976 46.8651 45.9828 48.3124 45.9329C55.7013 45.6642 60.1421 53.6427 60.3269 53.9831C61.0189 55.2533 60.5532 56.8442 59.283 57.5362C58.0143 58.2303 56.4502 57.762 55.7307 56.4981C55.6777 56.3755 52.5569 51.0199 48.504 51.1636C47.5746 51.202 46.7454 50.7503 46.2531 50.0397ZM47.1022 40.1842C46.9217 39.9237 46.7856 39.626 46.7077 39.2975C46.3738 37.8908 47.2438 36.4787 48.6504 36.1447C55.8413 34.4357 61.7578 41.3886 62.0072 41.6842C62.9162 42.8168 62.7898 44.4468 61.6801 45.3749C60.5725 46.3016 58.9233 46.1567 57.996 45.0528C57.9322 44.9791 53.8186 40.3018 49.862 41.2423C48.7803 41.4978 47.6989 41.0455 47.1022 40.1842ZM47.498 28.8741C47.3175 28.6135 47.1814 28.3158 47.1036 27.9873C46.7696 26.5807 47.6396 25.1685 49.0462 24.8345C56.2372 23.1255 62.1536 30.0784 62.4031 30.3741C63.3165 31.5131 63.1856 33.1366 62.0759 34.0648C60.9684 34.9914 59.3192 34.8465 58.3918 33.7426C58.328 33.6689 54.2144 28.9916 50.2579 29.9321C49.1782 30.1861 48.0947 29.7354 47.498 28.8741Z" fill="#D9D9D9" fill-opacity="0.5"/>
<path d="M60.9978 28.8841C60.7487 28.5245 60.587 28.098 60.5431 27.6344C60.5376 27.5713 59.8458 21.3519 56.0492 19.8553C54.7077 19.3219 54.044 17.8027 54.5744 16.4569C55.1048 15.1111 56.6255 14.4496 57.9727 14.9821C64.8474 17.6924 65.7263 26.781 65.7616 27.1676C65.8883 28.6063 64.8233 29.8796 63.3824 30.0078C62.4131 30.0898 61.517 29.6335 60.9978 28.8841ZM66.0071 24.0721C65.5834 23.4605 65.4233 22.6728 65.6296 21.8988C65.6559 21.785 67.146 15.7526 64.111 13.0463C63.0342 12.0715 62.9415 10.4244 63.9032 9.34699C64.8686 8.27027 66.5237 8.17528 67.6025 9.13915C73.1139 14.0814 70.7863 22.893 70.6862 23.2683C70.3049 24.6637 68.8656 25.4888 67.4702 25.1075C66.8517 24.9369 66.3457 24.5609 66.0071 24.0721Z" fill="#D9D9D9" fill-opacity="0.5"/>
<path d="M89.78 31.1687C83.8307 22.5813 74.1499 15.126 67.1603 17.4891C57.3929 20.7919 57.5576 29.7603 57.6879 36.9678C57.7871 42.4791 57.8934 48.18 54.9044 53.4472L54.7544 53.7136L54.6352 53.997C52.7759 58.4018 49.3159 62.6026 45.9711 66.6663C39.3355 74.7243 31.0769 84.7545 39.1282 96.3758C43.5346 102.718 52.9086 105.774 63.0308 104.189C78.6037 101.749 91.031 90.0452 96.2729 72.8824C101.938 52.8991 94.6343 38.1755 89.78 31.1687Z" fill="#D9D9D9"/>
<path d="M85.4734 34.1522C91.5003 42.8515 95.6635 55.8248 91.2607 71.3515C81.9145 101.96 51.0565 104.361 43.4482 93.4115L43.4347 93.3921C34.4809 80.468 53.3458 70.5215 59.4617 56.0324C67.4989 41.8694 57.4746 26.2962 68.8405 22.4532C72.1117 21.3469 79.6599 25.7608 85.4734 34.1522Z" fill="#D9D9D9"/>
<path d="M53.1465 89.0475C55.6182 92.6152 60.5141 93.5037 64.0818 91.032C67.6495 88.5603 68.5379 83.6644 66.0662 80.0967C63.5945 76.529 58.6986 75.6405 55.131 78.1123C51.5633 80.584 50.6748 85.4798 53.1465 89.0475Z" fill="#FAFAFA"/>
<path d="M71.8646 79.2663C73.5124 81.6448 76.7763 82.2371 79.1548 80.5893C81.5332 78.9415 82.1255 75.6776 80.4777 73.2991C78.8299 70.9207 75.566 70.3284 73.1876 71.9762C70.8091 73.624 70.2168 76.8879 71.8646 79.2663Z" fill="#FAFAFA"/>
<path d="M65.7286 61.2098C67.3764 63.5882 70.6403 64.1805 73.0188 62.5327C75.3972 60.8849 75.9896 57.621 74.3418 55.2426C72.694 52.8641 69.43 52.2718 67.0516 53.9196C64.6731 55.5674 64.0808 58.8313 65.7286 61.2098Z" fill="#FAFAFA"/>
<path d="M83.1237 58.7189C83.9476 59.9081 85.5796 60.2043 86.7688 59.3804C87.958 58.5565 88.2542 56.9245 87.4303 55.7353C86.6064 54.546 84.9744 54.2499 83.7852 55.0738C82.596 55.8977 82.2998 57.5296 83.1237 58.7189Z" fill="#FAFAFA"/>
<path d="M74.0041 36.3555C74.828 37.5448 76.4599 37.8409 77.6492 37.017C78.8384 36.1931 79.1346 34.5611 78.3107 33.3719C77.4868 32.1827 75.8548 31.8865 74.6656 32.7104C73.4763 33.5343 73.1802 35.1663 74.0041 36.3555Z" fill="#FAFAFA"/>
</g>
</svg>
